<?xml version="1.0" encoding="iso-8859-1"?>
<!-- Generator: Adobe Illustrator 19.0.0, SVG Export Plug-In . SVG Version: 6.00 Build 0)  -->
<svg version="1.1" id="Capa_1" xmlns="http://www.w3.org/2000/svg" xmlns:xlink="http://www.w3.org/1999/xlink" x="0px" y="0px"
	 viewBox="0 0 512 512" style="enable-background:new 0 0 512 512;" xml:space="preserve">
<g>
	<g>
		<path d="M296.497,252.307c-8.902-8.907-20.74-13.812-33.333-13.812c-10.155,0-19.818,3.19-27.848,9.095
			c-8.03-5.905-17.695-9.095-27.849-9.095c-12.592,0-24.43,4.905-33.333,13.81c-18.38,18.379-18.381,48.286-0.001,66.668
			l55.698,55.697c1.454,1.455,3.427,2.272,5.484,2.272c2.058,0,4.03-0.817,5.486-2.273l55.694-55.696
			c8.906-8.905,13.81-20.743,13.81-33.335C310.305,273.046,305.4,261.208,296.497,252.307z M285.525,308.004l-50.209,50.211
			l-50.212-50.211c-12.332-12.332-12.332-32.397-0.001-44.727c5.974-5.975,13.916-9.266,22.363-9.266s16.39,3.291,22.364,9.266
			c1.455,1.456,3.428,2.273,5.486,2.273c2.058,0,4.031-0.817,5.486-2.273c5.974-5.975,13.915-9.266,22.363-9.266
			c8.447,0,16.388,3.291,22.361,9.267c5.975,5.973,9.265,13.914,9.265,22.362S291.5,302.03,285.525,308.004z"/>
	</g>
</g>
<g>
	<g>
		<path d="M511.961,89.737c-0.01-0.105-0.03-0.207-0.044-0.311c-0.02-0.146-0.038-0.294-0.067-0.439
			c-0.024-0.124-0.059-0.243-0.089-0.366c-0.031-0.124-0.059-0.247-0.096-0.371c-0.036-0.12-0.082-0.237-0.124-0.355
			c-0.042-0.12-0.083-0.241-0.131-0.36c-0.046-0.111-0.101-0.218-0.152-0.326c-0.057-0.121-0.111-0.243-0.175-0.363
			c-0.055-0.102-0.117-0.199-0.177-0.299c-0.071-0.118-0.137-0.237-0.214-0.351c-0.071-0.107-0.152-0.208-0.228-0.311
			c-0.074-0.1-0.143-0.202-0.223-0.299c-0.136-0.166-0.282-0.322-0.43-0.476c-0.028-0.029-0.053-0.062-0.082-0.091
			c-0.027-0.027-0.058-0.05-0.086-0.078c-0.156-0.15-0.314-0.298-0.482-0.435c-0.091-0.074-0.186-0.138-0.279-0.208
			c-0.11-0.083-0.218-0.168-0.332-0.244c-0.107-0.072-0.217-0.133-0.327-0.199c-0.108-0.065-0.214-0.132-0.325-0.192
			c-0.108-0.058-0.22-0.107-0.33-0.16c-0.119-0.057-0.237-0.115-0.36-0.167c-0.105-0.043-0.212-0.078-0.318-0.116
			c-0.132-0.047-0.264-0.098-0.399-0.139c-0.103-0.031-0.208-0.054-0.313-0.081c-0.14-0.035-0.28-0.075-0.424-0.103
			c-0.114-0.022-0.229-0.035-0.345-0.052c-0.134-0.02-0.268-0.046-0.405-0.059c-0.191-0.018-0.383-0.024-0.575-0.029
			c-0.063-0.001-0.123-0.009-0.185-0.009H336.163v-2.586V59.476c0-0.269-0.014-0.533-0.04-0.795
			c-0.408-9.345-7.918-16.857-17.263-17.272c-0.263-0.026-0.528-0.04-0.798-0.04H193.941c-0.27,0-0.536,0.014-0.799,0.04
			c-9.342,0.415-16.85,7.927-17.259,17.272c-0.027,0.262-0.04,0.526-0.04,0.795v20.687v2.586H49.132
			c-0.063,0-0.122,0.008-0.184,0.009c-0.192,0.005-0.385,0.011-0.576,0.029c-0.137,0.013-0.271,0.038-0.406,0.059
			c-0.115,0.017-0.23,0.03-0.345,0.052c-0.143,0.028-0.283,0.068-0.423,0.103c-0.104,0.027-0.209,0.05-0.313,0.081
			c-0.135,0.04-0.266,0.091-0.398,0.139c-0.107,0.038-0.214,0.073-0.319,0.117c-0.122,0.05-0.239,0.109-0.359,0.166
			c-0.111,0.053-0.222,0.101-0.331,0.16c-0.111,0.06-0.217,0.127-0.325,0.192c-0.109,0.066-0.22,0.127-0.327,0.199
			c-0.114,0.077-0.222,0.162-0.332,0.244c-0.093,0.07-0.188,0.134-0.279,0.208c-0.168,0.137-0.326,0.285-0.482,0.435
			c-0.028,0.027-0.059,0.05-0.086,0.078L2.272,126.395c-0.029,0.029-0.053,0.062-0.082,0.091c-0.149,0.154-0.295,0.31-0.43,0.476
			c-0.08,0.097-0.149,0.199-0.223,0.299c-0.077,0.103-0.158,0.204-0.228,0.311c-0.077,0.114-0.144,0.233-0.214,0.352
			c-0.06,0.1-0.122,0.197-0.177,0.299c-0.064,0.12-0.118,0.242-0.176,0.365c-0.05,0.108-0.104,0.213-0.149,0.323
			c-0.05,0.119-0.09,0.241-0.133,0.363c-0.041,0.117-0.087,0.233-0.123,0.354c-0.037,0.123-0.065,0.246-0.096,0.371
			c-0.03,0.122-0.065,0.241-0.089,0.366c-0.028,0.145-0.046,0.293-0.067,0.439c-0.014,0.104-0.034,0.206-0.046,0.311
			C0.013,131.369,0,131.628,0,131.885v330.988c0,4.285,3.473,7.758,7.758,7.758h455.11c0.256,0,0.511-0.013,0.766-0.038
			c0.118-0.012,0.233-0.034,0.351-0.051c0.132-0.02,0.266-0.035,0.398-0.061c0.134-0.027,0.266-0.065,0.398-0.098
			c0.113-0.028,0.226-0.053,0.338-0.087c0.129-0.039,0.255-0.088,0.382-0.133c0.111-0.04,0.224-0.077,0.334-0.122
			c0.119-0.049,0.233-0.107,0.35-0.163c0.113-0.053,0.227-0.104,0.338-0.163c0.111-0.06,0.216-0.126,0.323-0.191
			c0.11-0.066,0.222-0.128,0.329-0.2c0.114-0.077,0.222-0.162,0.331-0.243c0.093-0.071,0.189-0.135,0.28-0.209
			c0.167-0.137,0.326-0.285,0.482-0.435c0.028-0.027,0.059-0.051,0.086-0.078l41.375-41.374c0.029-0.029,0.053-0.062,0.082-0.091
			c0.148-0.154,0.294-0.31,0.43-0.476c0.079-0.096,0.149-0.199,0.223-0.298c0.077-0.103,0.158-0.204,0.228-0.311
			c0.077-0.114,0.143-0.233,0.214-0.352c0.06-0.1,0.122-0.197,0.177-0.299c0.064-0.119,0.118-0.242,0.175-0.364
			c0.05-0.108,0.105-0.214,0.152-0.324c0.048-0.119,0.089-0.24,0.131-0.362c0.043-0.118,0.088-0.234,0.124-0.355
			c0.037-0.123,0.065-0.246,0.096-0.371c0.03-0.122,0.065-0.241,0.089-0.366c0.028-0.145,0.046-0.293,0.067-0.439
			c0.014-0.104,0.034-0.206,0.044-0.311c0.026-0.257,0.039-0.515,0.039-0.773V90.51C512,90.252,511.987,89.994,511.961,89.737z
			 M191.357,59.476c0-1.429,1.163-2.592,2.592-2.592h124.108c1.429,0,2.592,1.163,2.592,2.592v12.929H191.357V59.476z
			 M15.515,139.638h24.948c-2.922,12.315-12.632,22.024-24.948,24.943V139.638z M15.515,455.115V430.17
			c12.316,2.92,22.026,12.629,24.948,24.945H15.515z M414.358,455.116H56.274c-3.329-20.889-19.868-37.428-40.759-40.755V180.391
			c20.89-3.326,37.429-19.864,40.758-40.753h358.085c3.328,20.889,19.864,37.426,40.751,40.755v233.967
			C434.222,417.69,417.686,434.228,414.358,455.116z M455.11,455.115h-24.941c2.921-12.314,12.628-22.022,24.941-24.944V455.115z
			 M455.11,164.583c-12.313-2.922-22.02-12.63-24.941-24.944h24.941V164.583z M459.654,124.124H26.487l25.86-25.861h123.495v12.931
			c0,4.285,3.472,7.758,7.757,7.758c4.285,0,7.758-3.473,7.758-7.758V87.919h129.291v23.275c0,4.285,3.473,7.758,7.758,7.758
			c4.285,0,7.758-3.473,7.758-7.758V98.262h149.35L459.654,124.124z M496.485,418.286l-25.86,25.858V421.54
			c0-0.014,0.002-0.027,0.002-0.04s-0.002-0.026-0.002-0.04V173.294c0-0.014,0.002-0.027,0.002-0.04s-0.002-0.026-0.002-0.04
			v-38.119l25.86-25.861V418.286z"/>
	</g>
</g>
<g>
	<g>
		<path d="M363.25,265.268c-2.533-10.147-6.299-19.984-11.181-29.251c-4.789-9.112-10.665-17.667-17.46-25.424
			c-6.765-7.736-14.429-14.688-22.777-20.635c-10.922-7.799-22.921-13.86-35.653-18.007c-13.157-4.283-26.903-6.454-40.846-6.454
			h-0.03c-10.033,0-20.046,1.137-29.748,3.372c-9.422,2.183-18.638,5.41-27.369,9.609c-8.575,4.127-16.725,9.206-24.234,15.101
			c-7.457,5.855-14.295,12.516-20.325,19.818c-1.323,1.593-1.944,3.61-1.748,5.679c0.196,2.059,1.189,3.92,2.782,5.244
			c1.387,1.147,3.144,1.779,4.944,1.779c2.317,0,4.499-1.024,5.979-2.813c22.217-26.863,54.923-42.274,89.729-42.274
			c24.379,0,47.724,7.468,67.511,21.576c7.375,5.266,14.139,11.399,20.108,18.225c5.999,6.847,11.181,14.398,15.411,22.425
			c4.303,8.171,7.623,16.849,9.857,25.796c2.307,9.216,3.476,18.752,3.476,28.341c0,15.722-3.083,30.957-9.143,45.294
			c-5.855,13.839-14.243,26.293-24.938,36.988c-10.695,10.695-23.148,19.084-36.988,24.938c-14.336,6.072-29.572,9.143-45.294,9.143
			s-30.958-3.072-45.294-9.143c-13.839-5.855-26.283-14.243-36.988-24.938c-10.696-10.695-19.084-23.138-24.938-36.988
			c-6.062-14.336-9.143-29.572-9.143-45.294c0-17.357,3.723-34.04,11.068-49.607c1.83-3.869,0.165-8.503-3.703-10.323
			c-1.045-0.496-2.152-0.745-3.3-0.745c-2.989,0-5.751,1.749-7.023,4.447c-4.065,8.606-7.199,17.688-9.299,26.976
			c-2.162,9.547-3.258,19.384-3.258,29.251c0,17.801,3.486,35.075,10.364,51.334c6.64,15.701,16.156,29.81,28.269,41.922
			c12.102,12.101,26.21,21.617,41.912,28.257c16.26,6.879,33.533,10.365,51.334,10.365c17.801,0,35.075-3.486,51.334-10.365
			c15.701-6.64,29.81-16.156,41.922-28.257c12.101-12.112,21.617-26.221,28.257-41.922c6.879-16.26,10.365-33.533,10.365-51.334
			C367.191,286.513,365.867,275.714,363.25,265.268z"/>
	</g>
</g>
<g>
</g>
<g>
</g>
<g>
</g>
<g>
</g>
<g>
</g>
<g>
</g>
<g>
</g>
<g>
</g>
<g>
</g>
<g>
</g>
<g>
</g>
<g>
</g>
<g>
</g>
<g>
</g>
<g>
</g>
</svg>
