<?xml version="1.0" encoding="iso-8859-1"?>
<!-- Generator: Adobe Illustrator 19.0.0, SVG Export Plug-In . SVG Version: 6.00 Build 0)  -->
<svg version="1.1" id="Capa_1" xmlns="http://www.w3.org/2000/svg" xmlns:xlink="http://www.w3.org/1999/xlink" x="0px" y="0px"
	 viewBox="0 0 512 512" style="enable-background:new 0 0 512 512;" xml:space="preserve">
<g>
	<g>
		<path d="M401.093,64.339L339.03,2.276C337.583,0.828,335.586,0,333.548,0H54.272c-2.037,0-4.045,0.828-5.482,2.276
			c-1.448,1.448-2.276,3.445-2.276,5.482v387.856c0,4.283,3.476,7.758,7.758,7.758c4.283,0,7.758-3.475,7.758-7.758V15.516h268.301
			l57.513,57.523v392.417H62.03v-38.81c0-4.282-3.475-7.758-7.758-7.758c-4.272,0-7.758,3.476-7.758,7.758v46.568
			c0,2.038,0.828,4.034,2.276,5.483c1.437,1.448,3.445,2.275,5.482,2.275h341.329c2.048,0,4.045-0.827,5.492-2.275
			c1.439-1.438,2.266-3.434,2.266-5.483V69.821C403.359,67.752,402.552,65.798,401.093,64.339z"/>
	</g>
</g>
<g>
	<g>
		<path d="M380.09,496.484H31.002V23.278c0-4.285-3.473-7.758-7.758-7.758c-4.285,0-7.758,3.473-7.758,7.758v480.964
			c0,4.285,3.473,7.758,7.758,7.758H380.09c4.285,0,7.758-3.473,7.758-7.758C387.848,499.957,384.375,496.484,380.09,496.484z"/>
	</g>
</g>
<g>
	<g>
		<path d="M364.576,62.066h-23.272V38.794c0-4.285-3.473-7.758-7.758-7.758c-4.285,0-7.758,3.473-7.758,7.758v31.03
			c0,4.285,3.473,7.758,7.758,7.758h31.03c4.285,0,7.758-3.473,7.758-7.758C372.334,65.539,368.861,62.066,364.576,62.066z"/>
	</g>
</g>
<g>
	<g>
		<path d="M495.694,407.805l-9.961-19.924h2.962c4.285,0,7.758-3.473,7.758-7.758V124.125c0-17.11-13.92-31.03-31.03-31.03
			c-17.11,0-31.03,13.92-31.03,31.03v255.998c0,4.285,3.473,7.758,7.758,7.758h2.962l-9.9,19.803
			c-1.314,2.628-1.03,5.773,0.732,8.124l23.272,31.03c1.463,1.95,3.757,3.099,6.194,3.103c0.004,0,0.008,0,0.012,0
			c2.433,0,4.725-1.141,6.192-3.084l23.332-30.909C496.723,413.596,497.012,410.441,495.694,407.805z M465.443,429.279
			l-14.209-18.946l11.226-22.453h5.926l11.279,22.559L465.443,429.279z M480.937,372.365h-31.028v-248.24
			c0-8.554,6.96-15.514,15.514-15.514c8.554,0,15.514,6.959,15.514,15.514V372.365z"/>
	</g>
</g>
<g>
	<g>
		<path d="M333.546,186.184h-217.21c-4.285,0-7.758,3.473-7.758,7.758c0,4.285,3.473,7.758,7.758,7.758h217.21
			c4.285,0,7.758-3.473,7.758-7.758C341.304,189.657,337.831,186.184,333.546,186.184z"/>
	</g>
</g>
<g>
	<g>
		<path d="M333.546,232.73h-217.21c-4.285,0-7.758,3.473-7.758,7.758c0,4.285,3.473,7.758,7.758,7.758h217.21
			c4.285,0,7.758-3.473,7.758-7.758C341.304,236.203,337.831,232.73,333.546,232.73z"/>
	</g>
</g>
<g>
	<g>
		<path d="M333.546,279.276h-217.21c-4.285,0-7.758,3.473-7.758,7.758c0,4.284,3.473,7.758,7.758,7.758h217.21
			c4.285,0,7.758-3.473,7.758-7.758C341.304,282.749,337.831,279.276,333.546,279.276z"/>
	</g>
</g>
<g>
	<g>
		<path d="M209.425,325.819h-93.089c-4.285,0-7.758,3.473-7.758,7.758c0,4.285,3.473,7.758,7.758,7.758h93.089
			c4.285,0,7.758-3.473,7.758-7.758C217.183,329.292,213.71,325.819,209.425,325.819z"/>
	</g>
</g>
<g>
	<g>
		<path d="M333.548,387.879h-10.721l2.144-4.286c1.916-3.832,0.363-8.492-3.469-10.409c-3.835-1.918-8.493-0.362-10.409,3.469
			l-5.613,11.226h-5.927l-5.612-11.225c-0.026-0.052-0.057-0.099-0.085-0.15c-0.069-0.131-0.141-0.259-0.217-0.385
			c-0.059-0.097-0.117-0.191-0.179-0.284c-0.077-0.117-0.159-0.23-0.242-0.343c-0.071-0.095-0.142-0.189-0.217-0.28
			c-0.083-0.102-0.17-0.2-0.258-0.297c-0.085-0.093-0.17-0.185-0.259-0.273c-0.087-0.088-0.178-0.172-0.271-0.256
			c-0.098-0.089-0.197-0.177-0.299-0.26c-0.091-0.074-0.186-0.146-0.281-0.217c-0.111-0.083-0.224-0.164-0.34-0.24
			c-0.095-0.063-0.192-0.123-0.291-0.183c-0.123-0.074-0.248-0.145-0.376-0.212c-0.053-0.028-0.101-0.061-0.156-0.088
			c-0.052-0.026-0.104-0.044-0.156-0.068c-0.122-0.058-0.247-0.112-0.371-0.163c-0.12-0.05-0.24-0.098-0.363-0.14
			c-0.107-0.038-0.215-0.071-0.323-0.104c-0.14-0.042-0.28-0.084-0.42-0.118c-0.096-0.023-0.193-0.042-0.29-0.062
			c-0.151-0.031-0.301-0.06-0.453-0.082c-0.097-0.014-0.195-0.023-0.292-0.033c-0.149-0.016-0.298-0.03-0.446-0.037
			c-0.109-0.005-0.218-0.004-0.328-0.005c-0.136-0.001-0.273-0.001-0.409,0.006c-0.123,0.006-0.246,0.019-0.37,0.03
			c-0.123,0.012-0.245,0.024-0.368,0.042c-0.129,0.019-0.259,0.044-0.387,0.07c-0.118,0.023-0.236,0.047-0.353,0.076
			c-0.124,0.031-0.246,0.067-0.37,0.104c-0.124,0.037-0.248,0.076-0.37,0.119c-0.11,0.039-0.219,0.082-0.327,0.127
			c-0.135,0.055-0.27,0.113-0.402,0.176c-0.046,0.023-0.095,0.039-0.142,0.063c-0.049,0.025-0.096,0.056-0.144,0.082
			c-0.135,0.071-0.268,0.146-0.398,0.225c-0.092,0.056-0.183,0.112-0.272,0.171c-0.121,0.08-0.239,0.165-0.357,0.252
			c-0.091,0.068-0.18,0.136-0.268,0.207c-0.106,0.086-0.208,0.177-0.31,0.269c-0.089,0.081-0.177,0.163-0.262,0.247
			c-0.091,0.091-0.179,0.185-0.265,0.281c-0.086,0.095-0.171,0.19-0.252,0.289c-0.077,0.094-0.151,0.19-0.223,0.289
			c-0.082,0.11-0.162,0.221-0.237,0.334c-0.063,0.095-0.123,0.193-0.183,0.292c-0.075,0.124-0.146,0.25-0.213,0.378
			c-0.028,0.052-0.061,0.1-0.087,0.154l-5.613,11.226h-18.478c-4.285,0-7.758,3.473-7.758,7.758c0,4.285,3.473,7.758,7.758,7.758
			h10.72l-2.145,4.288c-1.912,3.829-0.359,8.488,3.473,10.405c1.114,0.557,2.298,0.821,3.464,0.821c2.846,0,5.586-1.572,6.945-4.29
			l5.614-11.228h5.924l5.613,11.227c0.018,0.037,0.042,0.068,0.062,0.104c0.151,0.291,0.314,0.577,0.502,0.848
			c0.004,0.005,0.007,0.011,0.01,0.015c0.185,0.266,0.392,0.516,0.61,0.758c0.06,0.066,0.121,0.13,0.182,0.193
			c0.18,0.185,0.368,0.362,0.567,0.53c0.053,0.044,0.102,0.092,0.157,0.135c0.241,0.194,0.497,0.373,0.767,0.539
			c0.074,0.046,0.151,0.085,0.226,0.128c0.128,0.074,0.253,0.152,0.387,0.219c0.072,0.036,0.146,0.061,0.219,0.094
			c0.12,0.055,0.24,0.107,0.363,0.156c0.2,0.081,0.401,0.151,0.604,0.214c0.108,0.033,0.216,0.068,0.325,0.096
			c0.236,0.062,0.474,0.109,0.712,0.149c0.086,0.014,0.171,0.033,0.257,0.044c0.328,0.042,0.657,0.068,0.984,0.068
			c0.002,0,0.004-0.001,0.006-0.001s0.004,0.001,0.006,0.001c0.327,0,0.656-0.026,0.984-0.068c0.086-0.011,0.171-0.03,0.256-0.044
			c0.239-0.039,0.477-0.086,0.714-0.149c0.108-0.029,0.215-0.063,0.322-0.096c0.204-0.063,0.406-0.133,0.607-0.215
			c0.122-0.049,0.241-0.1,0.361-0.155c0.073-0.034,0.148-0.058,0.219-0.094c0.135-0.067,0.261-0.146,0.39-0.22
			c0.074-0.043,0.151-0.081,0.223-0.126c0.27-0.166,0.525-0.346,0.768-0.54c0.055-0.043,0.103-0.091,0.155-0.135
			c0.2-0.168,0.388-0.344,0.568-0.53c0.061-0.064,0.122-0.127,0.182-0.193c0.218-0.241,0.424-0.491,0.609-0.756
			c0.005-0.008,0.009-0.016,0.015-0.023c0.185-0.269,0.347-0.551,0.497-0.839c0.018-0.037,0.044-0.069,0.063-0.106l5.614-11.228
			h18.479c4.285,0,7.758-3.473,7.758-7.758C341.306,391.352,337.833,387.879,333.548,387.879z"/>
	</g>
</g>
<g>
	<g>
		<path d="M178.553,69.677c-4.896-4.907-11.41-7.609-18.34-7.609c-4.581,0-8.979,1.18-12.848,3.397
			c-3.87-2.217-8.268-3.397-12.849-3.397c-6.932,0-13.445,2.703-18.326,7.596c-4.906,4.894-7.61,11.407-7.61,18.338
			c-0.001,6.932,2.702,13.447,7.602,18.336l25.697,25.697c1.515,1.515,3.501,2.272,5.486,2.272s3.971-0.758,5.486-2.272
			l25.69-25.691c4.906-4.896,7.607-11.41,7.607-18.342C186.147,81.071,183.445,74.558,178.553,69.677z M167.576,95.368
			l-20.21,20.211l-20.217-20.217c-1.968-1.964-3.052-4.576-3.052-7.357s1.084-5.393,3.066-7.369
			c1.962-1.968,4.574-3.051,7.354-3.051c2.781,0,5.393,1.084,7.357,3.052c1.456,1.459,3.432,2.278,5.492,2.278
			c2.061,0,4.037-0.82,5.492-2.278c1.964-1.968,4.576-3.052,7.356-3.052c2.78,0,5.392,1.084,7.369,3.065
			c1.967,1.962,3.05,4.574,3.051,7.354C170.634,90.785,169.55,93.399,167.576,95.368z"/>
	</g>
</g>
<g>
</g>
<g>
</g>
<g>
</g>
<g>
</g>
<g>
</g>
<g>
</g>
<g>
</g>
<g>
</g>
<g>
</g>
<g>
</g>
<g>
</g>
<g>
</g>
<g>
</g>
<g>
</g>
<g>
</g>
</svg>
