<?xml version="1.0" encoding="iso-8859-1"?>
<!-- Generator: Adobe Illustrator 19.0.0, SVG Export Plug-In . SVG Version: 6.00 Build 0)  -->
<svg version="1.1" id="Capa_1" xmlns="http://www.w3.org/2000/svg" xmlns:xlink="http://www.w3.org/1999/xlink" x="0px" y="0px"
	 viewBox="0 0 512 512" style="enable-background:new 0 0 512 512;" xml:space="preserve">
<g>
	<g>
		<path d="M328.572,54.285c-4.897-4.9-11.41-7.599-18.339-7.599c-4.582,0-8.982,1.18-12.852,3.396
			c-3.873-2.216-8.274-3.396-12.856-3.396c-6.929,0-13.443,2.698-18.339,7.597c-10.11,10.111-10.111,26.564,0,36.678l25.712,25.707
			c1.455,1.454,3.428,2.272,5.486,2.272c2.057,0,4.03-0.818,5.485-2.273l25.702-25.707C338.681,80.847,338.68,64.394,328.572,54.285
			z M317.6,79.992l-20.217,20.221l-20.224-20.221c-4.064-4.065-4.065-10.676-0.001-14.74c1.967-1.968,4.583-3.051,7.366-3.051
			c2.785,0,5.404,1.084,7.374,3.054c1.455,1.454,3.428,2.272,5.485,2.272c0.001,0,0.002,0,0.003,0
			c2.058-0.001,4.031-0.819,5.485-2.275c1.965-1.968,4.579-3.05,7.362-3.05c2.783,0,5.398,1.083,7.367,3.054
			C321.662,69.317,321.661,75.928,317.6,79.992z"/>
	</g>
</g>
<g>
	<g>
		<path d="M483.559,0H131.885c-4.284,0-7.757,3.473-7.757,7.757V400.8c0,4.285,3.473,7.757,7.757,7.757h351.672
			c4.284,0,7.757-3.473,7.757-7.757V7.757C491.315,3.473,487.842,0,483.559,0z M475.8,393.042H139.643v-67.231h105.979
			c0.012,0,0.024,0.002,0.035,0.002c0.002,0,0.004,0,0.006,0s0.004,0,0.006,0c0.012,0,0.024-0.002,0.035-0.002H475.8V393.042z
			 M258.592,152.561c0,4.285,3.473,7.757,7.757,7.757c5.527,0,10.242,3.493,12.088,8.382l-2.329-1.708
			c-0.086-0.064-0.177-0.115-0.266-0.175c-0.091-0.062-0.181-0.124-0.275-0.182c-0.138-0.085-0.28-0.161-0.421-0.236
			c-0.076-0.04-0.15-0.081-0.227-0.118c-0.158-0.078-0.317-0.146-0.478-0.212c-0.068-0.027-0.136-0.057-0.206-0.082
			c-0.165-0.063-0.332-0.117-0.5-0.167c-0.073-0.022-0.146-0.044-0.22-0.064c-0.162-0.043-0.325-0.08-0.488-0.112
			c-0.088-0.017-0.175-0.034-0.264-0.05c-0.149-0.023-0.299-0.042-0.45-0.058c-0.106-0.011-0.212-0.021-0.318-0.027
			c-0.137-0.009-0.273-0.012-0.41-0.013c-0.119-0.001-0.237-0.001-0.356,0.004c-0.131,0.005-0.261,0.015-0.391,0.026
			c-0.121,0.011-0.241,0.022-0.363,0.038c-0.136,0.018-0.27,0.043-0.405,0.069c-0.113,0.021-0.225,0.042-0.337,0.069
			c-0.147,0.035-0.293,0.078-0.438,0.121c-0.074,0.022-0.149,0.037-0.223,0.062c-3.995,1.327-15.991,4.77-23.413,4.77
			s-19.415-3.442-23.408-4.769c-0.036-0.012-0.072-0.018-0.108-0.03c-0.124-0.038-0.25-0.071-0.376-0.104
			c-0.127-0.033-0.254-0.069-0.381-0.095c-0.102-0.022-0.207-0.036-0.31-0.054c-0.15-0.025-0.3-0.052-0.451-0.068
			c-0.082-0.009-0.165-0.011-0.248-0.017c-0.169-0.013-0.338-0.026-0.506-0.027c-0.079-0.001-0.158,0.005-0.236,0.006
			c-0.17,0.004-0.339,0.007-0.507,0.022c-0.101,0.008-0.201,0.025-0.3,0.038c-0.144,0.018-0.289,0.033-0.432,0.061
			c-0.127,0.023-0.252,0.057-0.378,0.086c-0.115,0.027-0.232,0.051-0.345,0.084c-0.133,0.037-0.264,0.086-0.395,0.131
			c-0.107,0.036-0.215,0.07-0.319,0.111c-0.12,0.047-0.238,0.104-0.356,0.158c-0.116,0.053-0.232,0.103-0.344,0.161
			c-0.102,0.053-0.201,0.112-0.301,0.169c-0.126,0.073-0.252,0.144-0.374,0.223c-0.028,0.018-0.058,0.032-0.086,0.052l-3.277,2.185
			c1.646-19.486,15.217-28.046,46.37-29.203L258.592,152.561L258.592,152.561z M221.04,181.746
			c5.568,1.63,16.321,4.424,24.621,4.424c8.198,0,18.79-2.725,24.415-4.364l9.202,6.748v15.716c0,18.536-15.08,33.616-33.616,33.616
			s-33.616-15.08-33.616-33.616v-16.528h0.002L221.04,181.746z M281.487,263.751h15.851c0.013,0,0.026,0.002,0.04,0.002
			c7.129,0,12.929,5.8,12.929,12.929v33.614h-52.093L281.487,263.751z M245.663,300.707l-23.272-46.545v-6.634
			c6.931,3.744,14.857,5.874,23.272,5.874c8.415,0,16.341-2.129,23.272-5.874v6.634L245.663,300.707z M233.111,310.296h-52.094
			v-33.614h0.001c0-7.129,5.8-12.929,12.929-12.929h15.893L233.111,310.296z M349.094,284.437h62.06
			c4.284,0,7.757-3.473,7.757-7.757v-12.929h2.544c0.013,0,0.026,0.002,0.04,0.002c7.129,0,12.929,5.8,12.929,12.929v33.614h-108.6
			v0v-33.614c0-7.129,5.8-12.929,12.929-12.929h2.584v12.927C341.337,280.965,344.81,284.437,349.094,284.437z M346.611,181.095
			c1.284-17.372,15.818-31.118,33.513-31.118c6.271,0,12.143,1.73,17.173,4.732L346.611,181.095z M408.867,166.177
			c2.723,4.478,4.421,9.641,4.788,15.163l-17.301-8.649L408.867,166.177z M379.358,181.538l34.382,17.188v5.545
			c0,18.536-15.08,33.616-33.616,33.616s-33.616-15.08-33.616-33.616v-5.632L379.358,181.538z M367.196,255.996L367.196,255.996
			v-0.002v-4.33c4.122,1.126,8.453,1.738,12.927,1.738c4.475,0,8.806-0.613,12.929-1.738v4.33c0,4.285,3.473,7.757,7.757,7.757
			h2.586v5.172H356.85v-5.17h2.589v0C363.723,263.753,367.196,260.28,367.196,255.996z M475.8,310.296h-25.861v-33.614
			c0-15.655-12.714-28.395-28.36-28.442c-0.028,0-0.055-0.004-0.082-0.004h-12.929v-3.943c12.507-8.915,20.687-23.527,20.687-40.022
			v-20.678c0-12.229-4.501-23.42-11.921-32.028c-0.227-0.3-0.468-0.584-0.73-0.842c-8.999-9.977-22.018-16.26-36.479-16.26
			c-27.09,0-49.131,22.04-49.131,49.131v10.203c0,0.006,0,0.012,0,0.018v10.457c0,16.496,8.181,31.108,20.689,40.023v3.944h-12.929
			c-8.145,0-15.497,3.447-20.687,8.952c-5.173-5.487-12.492-8.927-20.605-8.95c-0.027,0-0.054-0.004-0.081-0.004h-12.929v-13.863
			c6.474-8.322,10.343-18.765,10.343-30.102v-31.024c0-12.994-8.762-23.973-20.687-27.36v-14.011c0-4.285-3.473-7.757-7.757-7.757
			c-21.387,0-36.504,2.781-47.575,8.751c-14.758,7.959-22.242,21.544-22.242,40.377v10.289c0,0.011,0,0.021,0,0.032v20.703
			c0,11.336,3.87,21.779,10.343,30.102v13.865h-12.929c-15.684,0-28.444,12.76-28.444,28.444v33.614h-25.86V15.515H475.8V310.296z"
			/>
	</g>
</g>
<g>
	<g>
		<path d="M431.836,424.078c-4.284,0-7.757,3.473-7.757,7.757v12.929H87.921V67.235h12.923c4.284,0,7.757-3.473,7.757-7.757
			c0-4.284-3.473-7.757-7.757-7.757h-20.68c-4.284,0-7.757,3.473-7.757,7.757v393.044c0,4.285,3.473,7.757,7.757,7.757h351.672
			c4.284,0,7.757-3.473,7.757-7.757v-20.687C439.594,427.551,436.12,424.078,431.836,424.078z"/>
	</g>
</g>
<g>
	<g>
		<path d="M380.115,475.801c-4.284,0-7.757,3.473-7.757,7.757v12.927H36.2V118.958h12.923c4.284,0,7.757-3.473,7.757-7.757
			c0-4.285-3.473-7.757-7.757-7.757H28.442c-4.284,0-7.757,3.473-7.757,7.757v393.042c0,4.285,3.473,7.757,7.757,7.757h351.672
			c4.284,0,7.757-3.473,7.757-7.757v-20.684C387.872,479.273,384.399,475.801,380.115,475.801z"/>
	</g>
</g>
<g>
	<g>
		<path d="M380.122,103.425c-44.2,0-80.158,35.96-80.158,80.16c0,4.285,3.473,7.757,7.757,7.757s7.757-3.473,7.757-7.757
			c0-35.646,29-64.645,64.645-64.645c35.645,0,64.645,29,64.645,64.645c0,4.285,3.473,7.757,7.757,7.757s7.757-3.473,7.757-7.757
			C460.282,139.385,424.322,103.425,380.122,103.425z"/>
	</g>
</g>
<g>
	<g>
		<path d="M359.439,351.669H256.007c-4.284,0-7.757,3.473-7.757,7.757c0,4.285,3.473,7.757,7.757,7.757H359.44
			c4.284,0,7.757-3.473,7.757-7.757S363.724,351.669,359.439,351.669z"/>
	</g>
</g>
<g>
</g>
<g>
</g>
<g>
</g>
<g>
</g>
<g>
</g>
<g>
</g>
<g>
</g>
<g>
</g>
<g>
</g>
<g>
</g>
<g>
</g>
<g>
</g>
<g>
</g>
<g>
</g>
<g>
</g>
</svg>
