<?xml version="1.0" encoding="iso-8859-1"?>
<!-- Generator: Adobe Illustrator 19.0.0, SVG Export Plug-In . SVG Version: 6.00 Build 0)  -->
<svg version="1.1" id="Capa_1" xmlns="http://www.w3.org/2000/svg" xmlns:xlink="http://www.w3.org/1999/xlink" x="0px" y="0px"
	 viewBox="0 0 512 512" style="enable-background:new 0 0 512 512;" xml:space="preserve">
<g>
	<g>
		<path d="M511.199,440.862l-34.227-68.446l-41.068-82.137c-0.185-0.369-0.404-0.712-0.641-1.04
			c-1.395-1.949-3.632-3.124-6.089-3.124h-45.184c-0.011,0-0.021,0.002-0.031,0.002h-34.309c4.827-8.939,9.308-18.021,13.368-27.137
			c6.515-14.717,11.615-28.6,15.128-41.269c3.845-13.873,5.812-26.321,5.843-37.003c0.01-13.572-2.239-26.914-6.667-39.633
			c-4.276-12.297-10.51-23.762-18.501-34.081c-0.03-0.03-0.05-0.07-0.07-0.1l-0.029-0.03c-5.492-7.077-11.795-13.552-18.722-19.254
			c-6.966-5.722-14.576-10.671-22.617-14.697c-8.191-4.096-16.855-7.258-25.748-9.376c-9.155-2.188-18.612-3.303-28.098-3.303h-0.01
			h-0.021c-14.164,0-28.047,2.449-41.259,7.258c-12.769,4.658-24.585,11.404-35.115,20.057c-3.201,2.63-3.673,7.388-1.044,10.591
			c1.437,1.757,3.565,2.751,5.823,2.751c1.736,0,3.433-0.602,4.778-1.707c9.236-7.579,19.565-13.482,30.718-17.548
			c11.544-4.206,23.692-6.344,36.12-6.344c8.332,0,16.614,0.974,24.635,2.891c7.79,1.867,15.378,4.638,22.547,8.232
			c7.047,3.534,13.702,7.87,19.805,12.9c6.063,4.989,11.585,10.681,16.403,16.895c6.998,9.045,12.448,19.084,16.182,29.815
			c3.875,11.113,5.833,22.788,5.843,34.684c0.03,13.622-4.196,32.475-11.886,53.095c-6.714,18.077-15.933,37.324-26.339,55.327
			c-0.374,0.498-0.694,1.039-0.937,1.621c-6.349,10.865-13.121,21.247-20.026,30.599c-9.256,12.558-18.491,22.868-26.693,29.815
			c-4.046,3.443-8.001,6.164-11.424,7.88c-0.195,0.099-0.387,0.187-0.581,0.28v-50.622c0-4.158-3.37-7.529-7.529-7.529
			c-4.159,0-7.529,3.371-7.529,7.529v50.607c-1.333-0.63-2.714-1.381-4.118-2.273c-8.633-5.401-19.294-15.931-29.996-29.664
			c-8.404-10.732-16.794-23.278-24.599-36.627c-0.249-0.595-0.577-1.148-0.963-1.654c-6.774-11.716-13.083-24.015-18.528-36.246
			c-12.568-28.098-19.746-54.39-19.685-72.138c0.01-22.035,6.736-43.136,19.455-61.025c2.399-3.393,1.606-8.101-1.777-10.5
			c-1.285-0.914-2.791-1.395-4.357-1.395c-2.439,0-4.728,1.185-6.144,3.162c-7.086,9.968-12.599,20.911-16.363,32.515
			c-3.895,11.996-5.873,24.524-5.863,37.243c0.019,15.821,4.336,35.457,12.818,58.335c5.657,15.175,13.096,31.444,21.53,47.073
			h-49.412H82.821c-2.852,0-5.459,1.611-6.734,4.162l-15.058,30.116c0,0-0.001,0.001-0.001,0.003l-30.113,60.227
			c-0.001,0.002-0.003,0.004-0.004,0.006L0.795,440.866c-1.167,2.334-1.042,5.106,0.329,7.325s3.795,3.571,6.405,3.571h75.292
			H459.25c0.014,0,0.026,0.002,0.039,0.002h45.174c2.63,0,5.019-1.335,6.405-3.574C512.252,445.952,512.372,443.221,511.199,440.862
			z M87.475,301.176h28.339l-7.529,15.058H79.946L87.475,301.176z M78.168,436.704H19.711l22.588-45.176h58.457L78.168,436.704z
			 M95.004,436.704l24.669-49.338c1.167-2.334,1.042-5.106-0.329-7.325c-1.371-2.22-3.795-3.571-6.405-3.571H49.828l22.589-45.178
			h40.522c2.852,0,5.459-1.611,6.734-4.162l12.977-25.954h53.315c6.18,10.365,12.695,20.255,19.223,29.12
			c10.089,13.653,19.868,24.535,29.063,32.355c5.1,4.317,9.808,7.539,14.416,9.858c5.198,2.599,9.97,3.886,14.584,3.945
			c0.091,0.003,0.182,0.014,0.274,0.014c0.266,0,0.527-0.015,0.785-0.041c5.93-0.2,11.957-2.313,18.889-6.649
			c5.372-3.393,11.043-8.041,16.855-13.793c5.412-5.361,11.133-11.866,16.985-19.334c8.215-10.505,16.302-22.442,24.063-35.475
			h38.239l59.739,119.488c1.285,2.57,3.865,4.166,6.746,4.166c1.175,0,2.299-0.271,3.364-0.803
			c3.703-1.857,5.219-6.385,3.363-10.099c0,0,0-0.01-0.01-0.01l-56.366-112.742h28.339l67.759,135.528H95.004z"/>
	</g>
</g>
<g>
	<g>
		<path d="M312.147,155.268c-7.248-7.256-16.891-11.251-27.154-11.251c-7.916,0-15.465,2.377-21.833,6.795
			c-6.369-4.424-13.918-6.805-21.833-6.805c-10.259,0-19.903,3.999-27.151,11.256c-7.257,7.248-11.252,16.888-11.252,27.146
			c0,10.255,3.994,19.898,11.247,27.151l43.661,43.677c1.412,1.411,3.328,2.204,5.326,2.204c1.997,0,3.911-0.794,5.324-2.206
			l43.658-43.672c7.257-7.248,11.252-16.887,11.252-27.145C323.392,172.163,319.398,162.52,312.147,155.268z M301.495,198.913
			l-38.339,38.351l-38.335-38.352c-4.411-4.41-6.839-10.272-6.839-16.505c0-6.232,2.427-12.089,6.841-16.498
			c4.41-4.414,10.27-6.845,16.503-6.845c6.233,0,12.094,2.431,16.503,6.845c1.411,1.413,3.328,2.208,5.326,2.208
			c0.001,0,0.001,0,0.001,0c1.998,0,3.913-0.793,5.326-2.206c4.41-4.41,10.274-6.838,16.512-6.838
			c6.237,0,12.097,2.427,16.503,6.838c4.411,4.411,6.839,10.273,6.839,16.506C308.334,188.649,305.907,194.506,301.495,198.913z"/>
	</g>
</g>
<g>
	<g>
		<path d="M376.078,396.676l-15.06-45.176c-1.026-3.075-3.902-5.148-7.143-5.148h-28.779c-4.159,0-7.529,3.371-7.529,7.529
			s3.37,7.529,7.529,7.529h23.353l10.04,30.118H168.561l10.039-30.118h23.366c4.159,0,7.529-3.371,7.529-7.529
			s-3.37-7.529-7.529-7.529h-28.792c-3.242,0-6.119,2.074-7.143,5.148l-15.058,45.176c-0.766,2.296-0.38,4.82,1.035,6.783
			c1.414,1.964,3.687,3.127,6.108,3.127h210.82c2.42,0,4.693-1.163,6.108-3.127C376.459,401.496,376.844,398.972,376.078,396.676z"
			/>
	</g>
</g>
<g>
</g>
<g>
</g>
<g>
</g>
<g>
</g>
<g>
</g>
<g>
</g>
<g>
</g>
<g>
</g>
<g>
</g>
<g>
</g>
<g>
</g>
<g>
</g>
<g>
</g>
<g>
</g>
<g>
</g>
</svg>
